<svg xmlns="http://www.w3.org/2000/svg" viewBox="0 0 15 12"><defs><style>.arrowRight{fill-rule: evenodd;}</style></defs><path class="arrowRight" d="M824.843,76.133l-0.023,0h10.037L831.7,79.174a0.776,0.776,0,0,0,0,1.122l0.491,0.473a0.844,0.844,0,0,0,1.159,0l5.409-5.209a0.776,0.776,0,0,0,0-1.121l-5.409-5.21a0.845,0.845,0,0,0-1.159,0L831.7,69.7a0.768,0.768,0,0,0-.24.558,0.744,0.744,0,0,0,.24.548l3.191,3.063H824.832a0.835,0.835,0,0,0-.832.811v0.669A0.82,0.82,0,0,0,824.843,76.133Z" transform="translate(-824 -69)"></path></svg>